<?xml version="1.0" encoding="utf-8"?>
<!-- Generator: Adobe Illustrator 22.0.1, SVG Export Plug-In . SVG Version: 6.00 Build 0)  -->
<svg version="1.1" id="Layer_1" xmlns="http://www.w3.org/2000/svg" xmlns:xlink="http://www.w3.org/1999/xlink" x="0px" y="0px"
	 viewBox="0 0 10 10" style="enable-background:new 0 0 10 10;" xml:space="preserve">
<g>
	<g>
		<path d="M9.5,4.8c0,0-0.6-0.1-1.4,0.1C7.4,5,6.7,5.3,6.2,5.7C6,5.5,5.9,5.4,5.8,5.2c0.9-0.8,1.7-1,1.7-1.1c0.1,0,0.2-0.2,0.2-0.3
			c0-0.1-0.2-0.2-0.3-0.2c0,0-0.9,0.3-1.8,1.2C5.4,4.8,5.2,4.6,5.1,4.5c0.9-0.9,1.1-1.8,1.2-1.8c0-0.1,0-0.2-0.2-0.3
			c-0.1,0-0.2,0-0.3,0.2c0,0-0.2,0.8-1.1,1.7C4.6,4,4.4,3.9,4.3,3.8c0.4-0.6,0.6-1.2,0.7-2c0.1-0.8,0.1-1.3,0.1-1.4
			c0-0.1-0.1-0.2-0.2-0.2c-0.1,0-0.2,0.1-0.2,0.2c0,0,0.2,1.6-0.7,3c-0.5-0.4-1-0.6-1.3-0.6C2.4,2.9,2.3,3,2.3,3.2l-2,5.1
			C0.2,8.6,0.3,9.1,0.6,9.4c0.3,0.3,0.8,0.4,1.2,0.2c5.5-2.1,5.2-2,5.2-2.1C7.1,7.4,7,7.1,7,7C6.9,6.7,6.6,6.3,6.4,6
			C7,5.6,7.7,5.4,8.2,5.4c0.7-0.1,1.3-0.1,1.3-0.1c0.1,0,0.2-0.1,0.2-0.2C9.7,5,9.6,4.9,9.5,4.8z M6,7.5L5.3,7.8
			C4.3,7.3,2.7,5.7,2.2,4.6l0.3-0.7C3.1,5.2,4.8,6.8,6,7.5z M1.5,9.2C1,9.4,0.5,8.9,0.7,8.4L2,5.2c0.6,1,1.8,2.2,2.8,2.8L1.5,9.2z
			 M6.6,7.2C6.2,7.2,5.5,6.6,5.2,6.4C4.2,5.6,3.4,4.7,3,4C2.9,3.8,2.8,3.6,2.7,3.4c0.2,0,0.5,0.2,1,0.5C3.6,4,3.5,4.1,3.5,4.1
			c-0.1,0.1,0,0.4,0.2,0.4c0.1,0,0.1,0,0.2-0.1C3.9,4.3,4,4.3,4,4.2c0.1,0.1,0.2,0.2,0.4,0.3c0,0-0.1,0.1-0.1,0.1
			C4.1,4.7,4.2,5,4.4,5c0.1,0,0.1,0,0.1-0.1c0.1-0.1,0.1-0.1,0.2-0.2C4.9,4.9,5,5.1,5.2,5.2C5.1,5.3,5.1,5.3,5,5.4
			C5,5.5,5,5.6,5.1,5.7c0.1,0.1,0.2,0.1,0.3,0c0,0,0.1-0.1,0.1-0.1c0.1,0.1,0.2,0.2,0.3,0.4C5.7,6,5.6,6.1,5.5,6.2
			c-0.1,0.1-0.1,0.2,0,0.3s0.2,0.1,0.3,0C5.9,6.4,6,6.3,6.1,6.3C6.2,6.5,6.5,7,6.6,7.2z"/>
		<circle cx="9.5" cy="1.2" r="0.2"/>
		<circle cx="6.1" cy="0.7" r="0.2"/>
		<circle cx="7.7" cy="7.4" r="0.2"/>
		<path d="M6.1,8.7C6,8.7,5.9,8.8,5.9,9c0,0.1,0.1,0.2,0.2,0.2S6.3,9.1,6.3,9C6.3,8.8,6.2,8.7,6.1,8.7z"/>
		<circle cx="1.9" cy="0.7" r="0.2"/>
		<rect x="0.6" y="3.5" transform="matrix(0.707 -0.7072 0.7072 0.707 -2.4014 1.709)" width="0.4" height="0.4"/>
		<polygon points="7.2,1.7 6.9,1.4 6.6,1.7 6.9,2.1 		"/>
		<rect x="9.4" y="3.1" transform="matrix(0.7071 -0.7071 0.7071 0.7071 0.4681 7.7467)" width="0.4" height="0.4"/>
		<rect x="8.5" y="6.2" transform="matrix(0.7071 -0.7071 0.7071 0.7071 -1.9966 8.0298)" width="0.4" height="0.4"/>
		<polygon points="3.7,1.7 3.4,1.4 3,1.7 3.4,2 		"/>
		<path d="M8.9,8.1c-0.3,0-0.6,0.2-0.6,0.6s0.2,0.6,0.6,0.6s0.6-0.2,0.6-0.6S9.2,8.1,8.9,8.1z M8.9,8.7c-0.1,0-0.1-0.1-0.1-0.1
			c0-0.1,0.1-0.1,0.1-0.1S9,8.6,9,8.6S9,8.7,8.9,8.7z"/>
		<path d="M0.8,2.7c0.4,0,0.7-0.3,0.7-0.7S1.1,1.4,0.8,1.4S0.1,1.7,0.1,2.1S0.4,2.7,0.8,2.7z M0.8,1.8C0.9,1.8,1,1.9,1,2.1
			c0,0.1-0.1,0.2-0.2,0.2S0.5,2.2,0.5,2.1C0.5,1.9,0.6,1.8,0.8,1.8z"/>
		<path d="M7.8,2.9l0.6,0.4c0.1,0.1,0.2,0,0.3-0.1c0.1-0.1,0-0.2-0.1-0.3L8.2,2.6l0.4-0.2c0.1-0.1,0.2-0.2,0.2-0.3v0
			c0-0.1-0.1-0.2-0.1-0.3L8.3,1.6l0.2-0.1c0.2-0.1,0.3-0.2,0.3-0.4V0.9c0-0.1-0.1-0.2-0.2-0.2c-0.1,0-0.2,0.1-0.2,0.2v0.1
			c0,0,0,0,0,0L8,1.3C7.8,1.4,7.7,1.7,7.9,1.8l0.3,0.2L7.8,2.3C7.6,2.5,7.6,2.8,7.8,2.9z"/>
	</g>
</g>
</svg>
