<?xml version="1.0" encoding="utf-8"?>
<!-- Generator: Adobe Illustrator 22.0.1, SVG Export Plug-In . SVG Version: 6.00 Build 0)  -->
<svg version="1.1" id="Layer_1" xmlns="http://www.w3.org/2000/svg" xmlns:xlink="http://www.w3.org/1999/xlink" x="0px" y="0px"
	 viewBox="0 0 10 10" style="enable-background:new 0 0 10 10;" xml:space="preserve">
<g>
	<path d="M9.9,2C9.7,1.8,9.6,1.6,9.3,1.5C9.2,1.5,9.1,1.4,8.9,1.4H1.1c-0.1,0-0.3,0-0.4,0.1C0.4,1.6,0.3,1.8,0.1,2
		C0,2.1,0,2.3,0,2.5v5c0,0.6,0.5,1.1,1.1,1.1h7.9c0.6,0,1.1-0.5,1.1-1.1v-5C10,2.3,10,2.1,9.9,2z M8.5,2.1L5.2,4.7
		c-0.1,0.1-0.3,0.1-0.4,0L1.5,2.1H8.5z M9.3,7.5c0,0.2-0.2,0.4-0.4,0.4H1.1c-0.2,0-0.4-0.2-0.4-0.4v-5c0,0,0,0,0,0l3.6,2.9
		c0.4,0.3,0.9,0.3,1.3,0l3.6-2.9c0,0,0,0,0,0V7.5z"/>
</g>
</svg>
