<?xml version="1.0" encoding="utf-8"?>
<!-- Generator: Adobe Illustrator 22.0.1, SVG Export Plug-In . SVG Version: 6.00 Build 0)  -->
<svg version="1.1" id="Layer_1" xmlns="http://www.w3.org/2000/svg" xmlns:xlink="http://www.w3.org/1999/xlink" x="0px" y="0px"
	 viewBox="0 0 10 10" style="enable-background:new 0 0 10 10;" xml:space="preserve">
<path d="M6.3,5l3.4-3.4c0.4-0.4,0.4-0.9,0-1.3s-0.9-0.4-1.3,0L5,3.7L1.6,0.3c-0.4-0.4-0.9-0.4-1.3,0s-0.4,0.9,0,1.3L3.7,5L0.3,8.4
	c-0.4,0.4-0.4,0.9,0,1.3s0.9,0.4,1.3,0L5,6.3l3.4,3.4c0.4,0.4,0.9,0.4,1.3,0c0.4-0.4,0.4-0.9,0-1.3L6.3,5z"/>
</svg>
