<?xml version="1.0" encoding="utf-8"?>
<!-- Generator: Adobe Illustrator 22.0.1, SVG Export Plug-In . SVG Version: 6.00 Build 0)  -->
<svg version="1.1" id="Layer_1" xmlns="http://www.w3.org/2000/svg" xmlns:xlink="http://www.w3.org/1999/xlink" x="0px" y="0px"
	 viewBox="0 0 10 10" style="enable-background:new 0 0 10 10;" xml:space="preserve">
<g>
	<path d="M4.3,6C3.7,6,3.1,6.4,2.9,7C2.8,7.1,2.9,7.3,3,7.3c0.1,0.1,0.3,0,0.4-0.1c0.2-0.4,0.5-0.6,0.9-0.6c0.6,0,1,0.4,1,1
		c0,0.2,0.1,0.3,0.3,0.3c0.2,0,0.3-0.1,0.3-0.3C5.8,6.7,5.1,6,4.3,6z"/>
	<path d="M1.5,9.2c0.4,0,0.7-0.1,0.8-0.2c0.2,0.2,0.4,0.3,0.6,0.3h2.6c0.2,0,0.3-0.1,0.3-0.3c0-0.2-0.1-0.3-0.3-0.3H2.9
		c-0.1,0-0.2-0.1-0.3-0.2c0,0,0,0,0,0C2.6,8.4,2.5,8.2,2.5,8c0-1,1-3.4,2.3-4.5c0.1,0.3,0.4,0.6,0.9,0.9s1,0.4,1.3,0.4h0
		c-0.1,1.3,0,2.1,0.5,3.7c0,0.1,0.1,0.2,0.3,0.2h0.6c0.2,0,0.3-0.1,0.3-0.3S8.4,8.2,8.3,8.2H7.9C7.5,6.6,7.5,5.9,7.5,4.5l0.1-0.4
		c0.2,0,0.4,0,0.5,0c0.3,0,0.5,0,0.8,0c0.5,0,0.8-0.2,0.9-0.6c0-0.2,0.1-0.3,0.1-0.4C9.9,3,10,2.9,10,2.6C10,2.1,9.6,2,9.4,2
		c-0.1,0-0.1,0-0.2,0C9,1.9,8.9,1.9,8.7,1.7c0,0-0.1-0.1-0.1-0.1C8.3,1.2,7.8,0.7,7,0.7C5.8,0.7,5.3,1.5,5.2,2
		C5,2.2,4.8,2.7,4.8,2.9C3.1,4,2,6.9,2,8c0,0.2,0,0.4,0.1,0.6C2,8.7,1.8,8.7,1.6,8.7c-0.3,0-1-0.1-1-1.4c0-0.5,0.1-1,0.3-1.3
		c0.1-0.1,0-0.3-0.1-0.4c-0.1-0.1-0.3,0-0.4,0.1C0.1,6.1,0,6.7,0,7.3C0,8.7,0.8,9.2,1.5,9.2z M5.6,2.3c0,0,0.1-0.1,0.1-0.2
		c0,0,0.2-0.9,1.3-0.9c0.6,0,0.9,0.4,1.2,0.7c0,0,0.1,0.1,0.1,0.2c0.3,0.3,0.5,0.3,0.8,0.4c0,0,0.1,0,0.2,0c0.1,0,0.2,0,0.2,0
		s0,0,0,0.1c0,0.2,0,0.2,0,0.2l0,0c0,0,0,0,0,0.1c0,0,0,0-0.1,0.4c0,0.1-0.1,0.2-0.4,0.2c-0.3,0-0.5,0-0.8,0c-0.2,0-0.5,0-0.8,0
		c-0.1,0-0.2,0.1-0.3,0.2L7,4.2c-0.2,0-0.6,0-1-0.3C5.3,3.5,5.3,3.1,5.3,3C5.3,2.8,5.5,2.4,5.6,2.3z"/>
	<path d="M6.8,9.3h0.6c0.2,0,0.3-0.1,0.3-0.3c0-0.2-0.1-0.3-0.3-0.3H7c-0.1-0.4-0.5-1.6-0.6-3c0-0.2-0.2-0.3-0.3-0.2
		C6,5.6,5.8,5.7,5.9,5.8C6,7.6,6.5,9,6.5,9.1C6.5,9.2,6.6,9.3,6.8,9.3z"/>
	<path d="M6.8,3.3c0.6,0,0.8-0.4,0.8-0.8c0-0.3-0.1-0.6-0.2-0.8C7.3,1.5,7.2,1.5,7.1,1.6C6.9,1.6,6.9,1.8,7,1.9C7,2,7.1,2.2,7.1,2.4
		c0,0.2-0.1,0.3-0.3,0.3c-0.4,0-0.4-0.4-0.5-0.4C6.4,2.1,6.2,2,6.1,2C5.9,2,5.8,2.2,5.8,2.3C5.9,2.7,6.2,3.3,6.8,3.3z"/>
</g>
</svg>
