<?xml version="1.0" encoding="utf-8"?>
<!-- Generator: Adobe Illustrator 22.0.1, SVG Export Plug-In . SVG Version: 6.00 Build 0)  -->
<svg version="1.1" id="Layer_1" xmlns="http://www.w3.org/2000/svg" xmlns:xlink="http://www.w3.org/1999/xlink" x="0px" y="0px"
	 viewBox="0 0 10 10" style="enable-background:new 0 0 10 10;" xml:space="preserve">
<path d="M5,0C3.2,0,1.7,1.5,1.7,3.3C1.7,5,3,6.4,4.6,6.6v1H3.3c-0.2,0-0.4,0.2-0.4,0.4s0.2,0.4,0.4,0.4h1.3v1.3C4.6,9.8,4.8,10,5,10
	s0.4-0.2,0.4-0.4V8.3h1.3c0.2,0,0.4-0.2,0.4-0.4S6.9,7.5,6.7,7.5H5.4V6.6C7,6.4,8.3,5,8.3,3.3C8.3,1.5,6.8,0,5,0z M5,5.8
	c-1.4,0-2.5-1.1-2.5-2.5S3.6,0.8,5,0.8s2.5,1.1,2.5,2.5S6.4,5.8,5,5.8z"/>
</svg>
