<?xml version="1.0" encoding="utf-8"?>
<!-- Generator: Adobe Illustrator 22.0.1, SVG Export Plug-In . SVG Version: 6.00 Build 0)  -->
<svg version="1.1" id="Layer_1" xmlns="http://www.w3.org/2000/svg" xmlns:xlink="http://www.w3.org/1999/xlink" x="0px" y="0px"
	 viewBox="0 0 10 10" style="enable-background:new 0 0 10 10;" xml:space="preserve">
<g>
	<path d="M1,6.3C0.6,6.7,0.4,7.2,0.4,7.8c0,0.5,0.2,1.1,0.6,1.4c0.4,0.4,0.9,0.6,1.5,0.6c0.5,0,1.1-0.2,1.5-0.6
		c0.6-0.6,0.7-1.4,0.5-2.1L5,6.6l0.6,0.7C5.3,8,5.5,8.8,6,9.4C6.4,9.8,7,10,7.5,10c0.5,0,1-0.2,1.4-0.6C9.3,9.1,9.6,8.6,9.6,8
		C9.6,7.5,9.4,7,9,6.6C8.5,6,7.7,5.8,6.9,6L6.2,5.3l1.9-1.9c0.4-0.4,0.8-1,1.1-1.6c0.3-0.6,0.5-1.3,0.1-1.7C9.2,0,9,0,9,0.1L5,4
		L1.3,0.1C1.2,0,1,0,1,0.1C0.6,0.4,0.8,1.2,1,1.8c0.3,0.6,0.7,1.3,1,1.7l1.7,1.8L3.1,5.8C2.4,5.6,1.6,5.8,1,6.3z M6.7,6.4
		c0.1,0.1,0.1,0.1,0.2,0c0.6-0.2,1.3-0.1,1.8,0.4C9,7.2,9.2,7.6,9.2,8c0,0.4-0.2,0.8-0.5,1.1C8,9.8,7,9.7,6.3,9.1
		C5.9,8.6,5.8,7.9,6,7.3c0-0.1,0-0.2,0-0.2L5.3,6.3l0.7-0.7L6.7,6.4z M2.3,3.2C2,2.8,1.6,2.2,1.4,1.6C1.2,1.2,1.1,0.8,1.2,0.6
		l3.5,3.7L4,5L2.3,3.2z M3.3,6.2l0.8-0.8c0,0,0,0,0,0c0,0,0,0,0,0l4.9-4.9c0,0.2-0.1,0.6-0.3,1.1c-0.2,0.6-0.6,1.2-1,1.5L4.1,6.9
		l0,0C4,7,3.9,7.1,4,7.1c0.3,0.6,0.1,1.3-0.3,1.8C3,9.6,2,9.6,1.3,8.9C1,8.6,0.8,8.2,0.8,7.8c0-0.4,0.2-0.8,0.5-1.1
		C1.6,6.3,2,6.1,2.5,6.1c0.2,0,0.4,0,0.6,0.1C3.2,6.3,3.3,6.3,3.3,6.2z"/>
	<path d="M1.7,7C1.5,7.2,1.3,7.5,1.3,7.8s0.1,0.6,0.3,0.8c0.2,0.2,0.5,0.3,0.8,0.3c0.3,0,0.6-0.1,0.8-0.3c0,0,0,0,0,0
		c0.2-0.2,0.3-0.5,0.3-0.8c0-0.3-0.1-0.6-0.3-0.8C2.8,6.5,2.1,6.5,1.7,7z M3,7.3c0.1,0.1,0.2,0.3,0.2,0.5C3.2,8,3.1,8.1,3,8.3
		c-0.3,0.3-0.7,0.3-1,0C1.8,8.1,1.8,8,1.8,7.8c0-0.2,0.1-0.4,0.2-0.5c0.1-0.1,0.3-0.2,0.5-0.2C2.7,7.1,2.8,7.1,3,7.3z"/>
	<path d="M7.5,9.1c0.3,0,0.6-0.1,0.8-0.3C8.5,8.6,8.7,8.3,8.7,8c0-0.3-0.1-0.6-0.3-0.8c-0.4-0.4-1.1-0.5-1.6,0
		C6.5,7.4,6.4,7.6,6.4,7.9c0,0.3,0.1,0.6,0.3,0.8C6.9,9,7.2,9.1,7.5,9.1z M7,7.4c0.1-0.1,0.3-0.2,0.5-0.2c0.2,0,0.4,0.1,0.5,0.2
		C8.2,7.6,8.2,7.8,8.2,8c0,0.2-0.1,0.4-0.2,0.5c-0.3,0.3-0.7,0.3-1,0c0,0,0,0,0,0C6.9,8.3,6.8,8.1,6.8,7.9C6.8,7.8,6.9,7.6,7,7.4z"
		/>
	<path d="M4.8,5.7c0.1,0,0.1,0,0.1-0.1l0.5-0.5c0.1-0.1,0.1-0.2,0-0.3c-0.1-0.1-0.2-0.1-0.3,0L4.7,5.3c-0.1,0.1-0.1,0.2,0,0.3
		C4.7,5.6,4.8,5.7,4.8,5.7z"/>
</g>
</svg>
