<?xml version="1.0" encoding="utf-8"?>
<!-- Generator: Adobe Illustrator 22.0.1, SVG Export Plug-In . SVG Version: 6.00 Build 0)  -->
<svg version="1.1" id="Layer_1" xmlns="http://www.w3.org/2000/svg" xmlns:xlink="http://www.w3.org/1999/xlink" x="0px" y="0px"
	 viewBox="0 0 10 10" style="enable-background:new 0 0 10 10;" xml:space="preserve">
<g>
	<g>
		<path d="M3.1,2.8c0,0-0.1,0-0.2,0l0,0c-0.2,0.1-0.3,0.1-0.4,0C2.4,2.7,2.3,2.5,2.2,2.4C2.2,2.3,2.2,2.1,2.4,2
			c0.2-0.1,0.3-0.3,0.4-0.4c0,0,0.1-0.1,0.1-0.1c0.1-0.2,0.4-0.3,0.6-0.4c0,0,0.1,0,0.1,0C4.1,1,4.2,0.9,4.2,0.8l0.1-0.3
			c0.1,0.2,0.3,0.4,0.4,0.6C4.9,1.6,5,2.1,5,2.6c0,0.3,0.1,0.7,0.2,1.1c0.1,0.3,0.3,0.7,0.6,1c1,1.3,1.6,2.5,1,3.9
			c0,0.1,0,0.2,0.1,0.2c0.1,0,0.2,0,0.2-0.1c0.7-1.7-0.3-3.1-1.1-4.3C5.8,4.2,5.7,3.9,5.6,3.6c-0.1-0.3-0.1-0.6-0.2-1
			C5.4,2,5.2,1.5,5.1,1C4.9,0.6,4.6,0.2,4.4,0c0,0-0.1,0-0.2,0C4.1,0,4.1,0.1,4.1,0.1L3.9,0.6c-0.1,0-0.3,0.1-0.3,0.1
			c-0.1,0-0.2,0-0.2,0.1C3.1,0.9,2.8,1,2.7,1.2c0,0.1-0.1,0.1-0.1,0.2C2.5,1.5,2.4,1.6,2.3,1.7C1.9,1.9,1.8,2.2,1.9,2.5
			C2,2.7,2.1,2.9,2.3,3.1c0.2,0.2,0.5,0.1,0.6,0.1c0.2,0.2,0.4,0.6,0,1.5C2.6,5.4,2.7,6.4,2.8,7.3c0,0.2,0,0.3,0.1,0.5
			c0.1,0.7,0,1-0.1,1.1C2.7,9,2.5,9,2.3,9.1H2.1c-0.4,0-0.8,0.3-0.8,0.8c0,0.1,0.1,0.2,0.2,0.2h1.6c0.1,0,0.2-0.1,0.2-0.2
			S3.2,9.6,3.1,9.6H1.8C1.9,9.5,2,9.4,2.1,9.4l0.2,0c0.3,0,0.6-0.1,0.7-0.3c0.2-0.3,0.3-0.8,0.2-1.4c0-0.2,0-0.3-0.1-0.5
			C3.1,6.4,2.9,5.5,3.3,4.8C3.9,3.5,3.3,2.9,3.1,2.8z"/>
		<path d="M8.2,5c0-0.1-0.1-0.2-0.2-0.1c-0.1,0-0.2,0.1-0.1,0.2c0.7,2.4,0.5,3.5,0.1,4C7.5,9.6,7,9.6,7,9.6H4.1
			c0.1-0.2,0.3-0.4,0.6-0.4h1c0.1,0,0.2-0.1,0.2-0.2S5.7,8.9,5.6,8.9C5,8.9,4.5,8.4,4.5,7.7S5,6.6,5.6,6.6c0.1,0,0.2-0.1,0.2-0.2
			S5.7,6.2,5.6,6.2c-0.9,0-1.5,0.7-1.5,1.5c0,0.5,0.2,0.9,0.5,1.1c-0.5,0-0.9,0.4-0.9,0.9c0,0.1,0.1,0.2,0.2,0.2L7,10c0,0,0,0,0,0
			c0.1,0,0.7,0,1.2-0.6C8.8,8.6,8.8,7.1,8.2,5z"/>
		<ellipse cx="3.7" cy="1.6" rx="0.2" ry="0.2"/>
	</g>
</g>
</svg>
