<?xml version="1.0" encoding="utf-8"?>
<!-- Generator: Adobe Illustrator 22.0.1, SVG Export Plug-In . SVG Version: 6.00 Build 0)  -->
<svg version="1.1" id="Layer_1" xmlns="http://www.w3.org/2000/svg" xmlns:xlink="http://www.w3.org/1999/xlink" x="0px" y="0px"
	 viewBox="0 0 10 10" style="enable-background:new 0 0 10 10;" xml:space="preserve">
<path d="M6.5,6.2v3.5c0,0.2-0.1,0.3-0.3,0.3H0.3C0.1,10,0,9.9,0,9.7V0.3C0,0.1,0.1,0,0.3,0h5.9c0.2,0,0.3,0.1,0.3,0.3v3.4
	C6.5,3.9,6.4,4,6.2,4C6,4,5.9,3.9,5.9,3.7V0.6H0.6v8.8h5.3V6.2C5.9,6,6,5.9,6.2,5.9C6.4,5.9,6.5,6,6.5,6.2z M2.3,5
	c0,0.2,0.1,0.3,0.3,0.3h5.7c0.2,0,0.3-0.1,0.3-0.3S8.5,4.7,8.3,4.7H2.6C2.5,4.7,2.3,4.8,2.3,5z M10,5C10,5,10,5,10,5
	c0-0.1,0-0.2-0.1-0.2L8.3,3.5C8.1,3.4,7.9,3.4,7.8,3.5C7.7,3.7,7.8,3.9,7.9,4l1.3,1L7.9,6C7.8,6.1,7.7,6.3,7.8,6.5
	c0.1,0.1,0.3,0.2,0.4,0.1l1.6-1.3C10,5.2,10,5.1,10,5C10,5,10,5,10,5L10,5L10,5z"/>
</svg>
