<?xml version="1.0" encoding="utf-8"?>
<!-- Generator: Adobe Illustrator 22.0.1, SVG Export Plug-In . SVG Version: 6.00 Build 0)  -->
<svg version="1.1" id="Layer_1" xmlns="http://www.w3.org/2000/svg" xmlns:xlink="http://www.w3.org/1999/xlink" x="0px" y="0px"
	 viewBox="0 0 10 10" style="enable-background:new 0 0 10 10;" xml:space="preserve">
<path d="M5,0C3.2,0,1.7,1.5,1.7,3.3C1.7,5,3,6.4,4.6,6.6v2.1L3.8,8C3.6,7.8,3.4,7.8,3.2,8c-0.2,0.2-0.1,0.4,0,0.6l1.5,1.4l0,0
	c0,0,0,0,0,0s0,0,0,0l0,0c0,0,0,0,0,0l0,0l0,0c0,0,0,0,0,0h0c0,0,0,0,0,0h0c0,0,0,0,0,0h0c0,0,0,0,0,0l0,0l0,0l0,0l0,0c0,0,0,0,0,0
	h0c0,0,0,0,0,0h0c0,0,0,0,0,0h0c0,0,0,0,0,0l0,0l0,0c0,0,0,0,0,0l0,0c0,0,0,0,0,0c0,0,0,0,0,0l0,0l1.5-1.4c0.2-0.2,0.2-0.4,0-0.6
	C6.6,7.8,6.3,7.8,6.2,8L5.4,8.7V6.6C7,6.4,8.3,5,8.3,3.3C8.3,1.5,6.8,0,5,0z M5,5.8c-1.4,0-2.5-1.1-2.5-2.5c0-1.4,1.1-2.5,2.5-2.5
	c1.4,0,2.5,1.1,2.5,2.5C7.5,4.7,6.4,5.8,5,5.8z"/>
</svg>
