<?xml version="1.0" encoding="utf-8"?>
<!-- Generator: Adobe Illustrator 22.0.1, SVG Export Plug-In . SVG Version: 6.00 Build 0)  -->
<svg version="1.1" id="Layer_1" xmlns="http://www.w3.org/2000/svg" xmlns:xlink="http://www.w3.org/1999/xlink" x="0px" y="0px"
	 viewBox="0 0 10 10" style="enable-background:new 0 0 10 10;" xml:space="preserve">
<path d="M10,7.9L9.5,5.6C9.5,5.3,9.3,5.1,9.1,4.9c0-0.1,0-0.2,0-0.3c0-0.4-0.2-0.7-0.6-0.9c0-0.1,0.1-0.2,0-0.4
	c0-0.7-0.6-1.3-1.3-1.3c-0.2,0-0.3,0-0.5,0.1C6.6,1.9,6.3,1.8,6,1.8c-0.3,0-0.6,0.1-0.7,0.4l-0.1,0C5,1.4,4.2,0.9,3.5,1.1
	C2.8,1.2,2.4,1.8,2.4,2.4c0,0,0,0.1,0,0.1C2.2,2.7,2.1,2.8,2.1,2.9c-0.1,0-0.2-0.1-0.4,0C1,2.9,0.4,3.5,0.4,4.2
	c0,0.3,0.1,0.6,0.4,0.8C0.6,5.2,0.5,5.3,0.5,5.5L0,7.9c-0.1,0.5,0.2,1,0.8,1.1C0.8,9,0.9,9,1,9H9c0.5,0,1-0.4,1-1
	C10,8,10,7.9,10,7.9L10,7.9z M1.7,3.2c0.1,0,0.3,0,0.4,0.1c0.1,0,0.1,0,0.2,0c0.1,0,0.1-0.1,0.1-0.1c0-0.2,0.2-0.3,0.3-0.4
	c0.1,0,0.1-0.1,0.1-0.2c0-0.1,0-0.1,0-0.2c0-0.6,0.5-1,1-1c0.5,0,0.9,0.4,1,0.9c0,0.1,0.1,0.2,0.2,0.2c0.1,0,0.2,0.1,0.2,0.1
	c0,0,0.1,0.1,0.2,0c0.1,0,0.1-0.1,0.1-0.1C5.6,2.2,5.8,2.1,6,2.1c0.3,0,0.5,0.2,0.5,0.4c0,0.1,0.1,0.2,0.2,0.1c0,0,0,0,0.1,0
	c0.1-0.1,0.3-0.1,0.5-0.1c0.5,0,0.9,0.4,0.9,0.9c0,0.1,0,0.3-0.1,0.4c0,0.1,0,0.1,0,0.2c0,0.1,0.1,0.1,0.2,0.1
	c0.3,0,0.5,0.3,0.5,0.5c0,0.1,0,0.1,0,0.2H8.6H1.4c-0.1,0-0.1,0-0.2,0H1.2H1.1C0.9,4.6,0.8,4.4,0.8,4.1C0.8,3.6,1.2,3.2,1.7,3.2z
	 M9.5,8.4C9.4,8.6,9.2,8.6,9,8.6H1c-0.3,0-0.6-0.3-0.6-0.6c0,0,0-0.1,0-0.1l0.5-2.3c0-0.2,0.1-0.3,0.3-0.4c0.1,0,0.2-0.1,0.2-0.1
	h7.2c0.1,0,0.1,0,0.2,0C9,5.3,9.1,5.4,9.1,5.6l0.5,2.3C9.6,8.1,9.6,8.3,9.5,8.4z"/>
</svg>
