<?xml version="1.0" encoding="utf-8"?>
<!-- Generator: Adobe Illustrator 22.0.1, SVG Export Plug-In . SVG Version: 6.00 Build 0)  -->
<svg version="1.1" id="Layer_1" xmlns="http://www.w3.org/2000/svg" xmlns:xlink="http://www.w3.org/1999/xlink" x="0px" y="0px"
	 viewBox="0 0 10 10" style="enable-background:new 0 0 10 10;" xml:space="preserve">
<g>
	<path d="M6.6,5.2C6.5,5.2,6.4,5,6.3,4.9C6.2,4.8,6.1,4.7,6,4.8C5.9,4.8,5.8,5,5.9,5.1C6,5.4,6.2,5.5,6.4,5.6C6.9,5.8,7,6.3,7,6.6
		c0,0.4-0.3,0.6-0.7,0.7c-0.2,0-0.4,0-0.5-0.1c-0.1,0-0.1-0.1-0.2-0.1C5.4,7.1,5.2,7,5,7c0,0,0,0,0,0C4.8,7,4.6,7.1,4.5,7.2
		c-0.1,0-0.1,0.1-0.2,0.1C4.1,7.3,3.9,7.4,3.8,7.3c0,0-0.1,0-0.1,0c-0.1,0-0.2,0-0.3,0.2c0,0.1,0,0.2,0.2,0.3c0,0,0.1,0,0.2,0
		c0.3,0,0.5,0,0.8-0.1c0.1,0,0.1-0.1,0.2-0.1C4.8,7.5,4.9,7.5,5,7.4c0.1,0,0.2,0.1,0.3,0.1c0.1,0,0.1,0.1,0.2,0.1
		c0.2,0.1,0.4,0.1,0.6,0.1c0.1,0,0.1,0,0.2,0c0.6-0.1,1-0.5,1.1-1.1C7.5,6.1,7.1,5.5,6.6,5.2z"/>
	<path d="M3.1,6.3C3.1,6,3.3,5.7,3.6,5.6C4,5.5,4.2,5,4.3,4.7C4.5,4.3,4.7,4.1,5,4.1c0,0,0,0,0,0c0,0,0,0,0,0c0,0,0,0,0,0
		c0.3,0,0.5,0.2,0.6,0.5c0.1,0.1,0.2,0.2,0.3,0.1C6,4.6,6.1,4.5,6,4.4C5.8,3.9,5.5,3.7,5,3.6c0,0,0,0,0,0c0,0,0,0,0,0
		c-0.7,0-1,0.7-1.1,0.9C3.8,4.9,3.6,5.2,3.5,5.2C3,5.4,2.7,5.8,2.6,6.3C2.5,6.7,2.7,7.1,3,7.4c0,0,0.1,0.1,0.2,0.1
		c0.1,0,0.1,0,0.2-0.1c0.1-0.1,0.1-0.2,0-0.3C3.1,6.9,3,6.6,3.1,6.3z"/>
	<path d="M2.7,5.4c0.2,0,0.4-0.2,0.5-0.3c0.2-0.2,0.2-0.6,0.2-0.9c-0.1-0.6-0.5-1-1-1c0,0-0.1,0-0.1,0c-0.2,0-0.4,0.2-0.5,0.3
		C1.6,3.8,1.6,4.1,1.6,4.4c0.1,0.6,0.5,1,1,1C2.7,5.4,2.7,5.4,2.7,5.4z M2.1,4.4c0-0.2,0-0.4,0.1-0.6c0-0.1,0.1-0.1,0.2-0.2
		c0,0,0,0,0.1,0c0.2,0,0.5,0.3,0.5,0.6c0,0.2,0,0.4-0.1,0.6c0,0.1-0.1,0.1-0.2,0.2C2.4,5,2.2,4.7,2.1,4.4z"/>
	<path d="M4,3.7C4,3.7,4,3.7,4,3.7c0.6,0,0.9-0.6,0.9-1.2c-0.1-0.6-0.5-1.1-1-1.1c-0.2,0-0.5,0.2-0.6,0.4C3.1,2,3,2.3,3,2.6
		C3.1,3.2,3.5,3.7,4,3.7z M3.6,2c0-0.1,0.1-0.2,0.3-0.2c0,0,0,0,0,0c0.2,0,0.5,0.3,0.5,0.7c0,0.4-0.1,0.7-0.4,0.8
		C3.8,3.3,3.5,3,3.5,2.6C3.5,2.4,3.5,2.2,3.6,2z"/>
	<path d="M7.7,3.2c0,0-0.1,0-0.1,0c-0.4,0-0.9,0.4-1,1c-0.1,0.3,0,0.7,0.2,0.9c0.1,0.2,0.3,0.3,0.5,0.3c0,0,0.1,0,0.1,0c0,0,0,0,0,0
		c0.4,0,0.9-0.4,1-1c0.1-0.3,0-0.7-0.2-0.9C8.1,3.3,7.9,3.2,7.7,3.2z M7.9,4.4C7.8,4.7,7.6,5,7.3,5c-0.1,0-0.2-0.1-0.2-0.2
		C7,4.7,7,4.4,7,4.2c0.1-0.3,0.3-0.6,0.5-0.6c0,0,0,0,0.1,0c0.1,0,0.2,0.1,0.2,0.2C7.9,3.9,8,4.1,7.9,4.4z"/>
	<path d="M6,3.7c0.5,0,0.9-0.5,0.9-1.1c0-0.3,0-0.6-0.2-0.8C6.7,1.5,6.4,1.4,6.2,1.4c-0.5,0-0.9,0.4-1,1.1C5.1,3.1,5.5,3.7,6,3.7
		C6,3.7,6,3.7,6,3.7z M5.6,2.5c0-0.4,0.3-0.7,0.5-0.7c0,0,0,0,0,0c0.1,0,0.2,0.1,0.3,0.2c0.1,0.1,0.1,0.3,0.1,0.6
		C6.5,3,6.2,3.3,6,3.3C5.8,3.2,5.6,2.9,5.6,2.5z"/>
	<path d="M8.3,2.8V2.2c0-0.1-0.1-0.2-0.2-0.2C8,1.9,7.9,2,7.9,2.2v0.4c-0.1,0-0.1,0-0.2,0c0,0-0.1,0-0.1,0c0,0,0-0.1,0-0.1
		c0-0.7-0.4-1.4-1-1.6V0.2C6.5,0.1,6.4,0,6.3,0S6.1,0.1,6.1,0.2v0.6c0,0,0,0,0,0C5.7,0.8,5.3,1,5,1.3C4.7,1,4.4,0.8,4,0.8V0.2
		C4,0.1,3.9,0,3.8,0C3.7,0,3.6,0.1,3.6,0.2v0.6C2.9,1,2.4,1.7,2.4,2.4c0,0,0,0.1,0,0.1c0,0-0.1,0-0.1,0c-0.1,0-0.1,0-0.2,0V2.1
		C2.1,2,2,1.9,1.9,1.9C1.8,1.9,1.7,2,1.7,2.1v0.7C1.2,3.1,1,3.7,1,4.4v5.4C1,9.9,1.1,10,1.2,10s0.2-0.1,0.2-0.2V4.4c0,0,0,0,0,0
		C1.4,3.7,1.8,3.1,2.4,3c0.1,0,0.2,0,0.3,0C2.7,3,2.8,3,2.8,3c0.1-0.1,0.1-0.1,0.1-0.2c0-0.1,0-0.2,0-0.3c0-0.7,0.5-1.2,1-1.2
		c0.4,0,0.7,0.2,0.9,0.6c0,0,0,0,0,0c0,0,0,0,0,0c0,0,0,0,0,0c0,0,0,0,0,0c0,0,0,0,0,0c0,0,0,0,0,0c0,0,0,0,0,0c0,0,0,0,0,0
		c0,0,0,0,0,0c0,0,0,0,0,0c0,0,0,0,0,0c0,0,0,0,0,0c0,0,0,0,0,0c0,0,0,0,0,0c0,0,0,0,0,0c0,0,0,0,0,0c0,0,0,0,0,0c0,0,0,0,0,0
		c0,0,0,0,0,0c0,0,0,0,0,0c0,0,0,0,0,0c0,0,0,0,0,0c0,0,0,0,0,0c0,0,0,0,0,0c0,0,0,0,0,0c0,0,0,0,0,0c0.2-0.4,0.5-0.6,0.9-0.6
		c0.6,0,1,0.5,1,1.2c0,0.1,0,0.2,0,0.3c0,0.1,0,0.2,0.1,0.2C7.2,3,7.3,3,7.4,3c0.1,0,0.2,0,0.3,0c0.6,0.1,1,0.7,0.9,1.3c0,0,0,0,0,0
		v5.4c0,0.1,0.1,0.2,0.2,0.2S9,9.9,9,9.8V4.4C9,3.7,8.8,3.2,8.3,2.8z"/>
</g>
</svg>
