<?xml version="1.0" encoding="utf-8"?>
<!-- Generator: Adobe Illustrator 22.0.1, SVG Export Plug-In . SVG Version: 6.00 Build 0)  -->
<svg version="1.1" id="Layer_1" xmlns="http://www.w3.org/2000/svg" xmlns:xlink="http://www.w3.org/1999/xlink" x="0px" y="0px"
	 viewBox="0 0 10 10" style="enable-background:new 0 0 10 10;" xml:space="preserve">
<g>
	<path d="M5,0C2.2,0,0,2.2,0,5s2.2,5,5,5s5-2.2,5-5C10,2.2,7.8,0,5,0z M5,9.3C2.6,9.3,0.7,7.4,0.7,5S2.6,0.7,5,0.7S9.3,2.6,9.3,5
		C9.3,7.4,7.4,9.3,5,9.3z"/>
	<path d="M7.7,4.7H5.3V2.3C5.3,2.1,5.2,2,5,2S4.7,2.1,4.7,2.3v2.3H2.3C2.1,4.7,2,4.8,2,5s0.1,0.3,0.3,0.3h2.3v2.3C4.7,7.9,4.8,8,5,8
		s0.3-0.1,0.3-0.3V5.3h2.3C7.9,5.3,8,5.2,8,5S7.9,4.7,7.7,4.7z"/>
</g>
</svg>
