<?xml version="1.0" encoding="utf-8"?>
<!-- Generator: Adobe Illustrator 22.0.1, SVG Export Plug-In . SVG Version: 6.00 Build 0)  -->
<svg version="1.1" id="Layer_1" xmlns="http://www.w3.org/2000/svg" xmlns:xlink="http://www.w3.org/1999/xlink" x="0px" y="0px"
	 viewBox="0 0 10 10" style="enable-background:new 0 0 10 10;" xml:space="preserve">
<g>
	<g>
		<path d="M8.7,7.6c0-0.1-0.1-0.2-0.2-0.1c-0.1,0-0.2,0.1-0.1,0.2c0.2,0.7,0.1,1.2-0.2,1.6c-0.4,0.4-1,0.4-1,0.4h-3
			c0.1-0.2,0.3-0.4,0.6-0.4h1c0.1,0,0.2-0.1,0.2-0.2S5.8,8.8,5.7,8.8C5,8.8,4.5,8.3,4.5,7.6c0-0.7,0.5-1.2,1.2-1.2
			c0.1,0,0.2-0.1,0.2-0.2S5.8,6,5.7,6C4.8,6,4.1,6.7,4.1,7.6c0,0.5,0.2,0.9,0.6,1.2c-0.5,0-1,0.5-1,1c0,0.1,0.1,0.2,0.2,0.2l3.2,0
			c0,0,0,0,0.1,0c0.2,0,0.9,0,1.3-0.5C8.8,9.1,8.9,8.4,8.7,7.6z"/>
		<path d="M3,2.3C2.9,2.2,2.8,2.1,2.7,2.1C2.4,2,2,1.8,1.7,1.3C1.6,1.2,1.6,1,1.6,0.9c0-0.1,0.1-0.1,0.1-0.1c0.1,0,0.2,0,0.3,0
			c0.1,0,0.2,0,0.3,0c0.2,0,0.5,0,0.7-0.1c0.1,0,0.1-0.1,0.2-0.1c0.6-0.2,1.2-0.5,1.6-0.1c0.4,0.3,0.5,1.3,0.3,1.7
			C5.1,2.5,4.9,2.5,4.7,2.5c-0.1,0-0.3-0.1-0.4-0.4c0-0.2,0.1-0.7,0.3-1c0.1-0.1,0.1-0.2,0-0.3s-0.2-0.1-0.3,0
			C4,1.2,3.9,1.8,3.9,2.2C4,2.6,4.3,2.8,4.6,2.9c0.2,0,0.4,0,0.5-0.1c0.1,0.6,0.4,1.1,0.7,1.6c1,1.4,1.7,2.6,1.1,4.1
			c0,0.1,0,0.2,0.1,0.3c0,0,0,0,0.1,0c0.1,0,0.2,0,0.2-0.1C8,6.9,7,5.4,6.2,4.2C5.8,3.7,5.5,3.1,5.5,2.5c0.3-0.6,0.2-1.7-0.4-2.2
			C4.5-0.2,3.6,0.1,3,0.3C3,0.4,2.9,0.4,2.8,0.4C2.7,0.5,2.5,0.5,2.3,0.5c-0.1,0-0.1,0-0.2,0c-0.1,0-0.3-0.1-0.4,0
			c-0.2,0-0.3,0.2-0.4,0.3C1.2,1,1.2,1.3,1.3,1.5c0.4,0.6,0.9,0.8,1.2,0.9c0.1,0,0.2,0.1,0.2,0.1c0,0,0.7,0.5,0.1,1.8
			C2.5,5.2,2.7,6.2,2.8,7.1c0,0.2,0.1,0.3,0.1,0.5c0.1,0.7,0,1-0.2,1.2C2.6,8.9,2.5,9,2.3,9H2.1C1.7,9,1.3,9.4,1.3,9.8
			c0,0.1,0.1,0.2,0.2,0.2h1.6c0.1,0,0.2-0.1,0.2-0.2S3.2,9.6,3.1,9.6H1.8C1.8,9.5,2,9.4,2.1,9.4l0.2,0c0.3,0,0.6-0.1,0.7-0.3
			c0.3-0.3,0.3-0.8,0.2-1.5c0-0.2,0-0.3-0.1-0.5C3.1,6.2,2.9,5.3,3.3,4.5C3.8,3.3,3.4,2.5,3,2.3z"/>
		<circle cx="3.7" cy="1" r="0.2"/>
	</g>
</g>
</svg>
