<?xml version="1.0" encoding="utf-8"?>
<!-- Generator: Adobe Illustrator 22.0.1, SVG Export Plug-In . SVG Version: 6.00 Build 0)  -->
<svg version="1.1" id="Layer_1" xmlns="http://www.w3.org/2000/svg" xmlns:xlink="http://www.w3.org/1999/xlink" x="0px" y="0px"
	 viewBox="0 0 10 10" style="enable-background:new 0 0 10 10;" xml:space="preserve">
<path d="M5,0C2.2,0,0,2.2,0,5s2.2,5,5,5s5-2.2,5-5S7.8,0,5,0z M5,9.4C3.7,9.4,2.6,8.9,1.8,8C2.1,6.5,3.4,5.3,5,5.3
	c1.6,0,2.9,1.2,3.2,2.7C7.4,8.9,6.3,9.4,5,9.4z M5,4.7c-0.7,0-1.2-0.5-1.2-1.2S4.3,2.3,5,2.3s1.2,0.5,1.2,1.2S5.7,4.7,5,4.7z
	 M6.1,4.9c0.4-0.3,0.6-0.8,0.6-1.4c0-1-0.8-1.8-1.8-1.8S3.2,2.6,3.2,3.5c0,0.6,0.3,1,0.6,1.4C2.7,5.3,1.7,6.2,1.3,7.4
	C0.9,6.7,0.6,5.9,0.6,5c0-2.4,2-4.4,4.4-4.4s4.4,2,4.4,4.4c0,0.9-0.3,1.7-0.7,2.4C8.3,6.2,7.3,5.3,6.1,4.9z"/>
</svg>
