<?xml version="1.0" encoding="utf-8"?>
<!-- Generator: Adobe Illustrator 22.0.1, SVG Export Plug-In . SVG Version: 6.00 Build 0)  -->
<svg version="1.1" id="Layer_1" xmlns="http://www.w3.org/2000/svg" xmlns:xlink="http://www.w3.org/1999/xlink" x="0px" y="0px"
	 viewBox="0 0 10 10" style="enable-background:new 0 0 10 10;" xml:space="preserve">
<g transform="translate(0,-952.36218)">
	<path d="M0.7,961.6c-1-1-1-2.5,0-3.5l5.1-5.1c1-1,2.5-1,3.5,0c1,1,1,2.5,0,3.5l-5.1,5.1C3.3,962.6,1.7,962.6,0.7,961.6z M3.8,955.8
		l2.7,2.7l2.3-2.3c0.8-0.8,0.8-2,0-2.7c-0.8-0.8-2-0.8-2.7,0L3.8,955.8z M7.4,956.5c-0.1-0.1-0.1-0.3,0-0.4l0.4-0.4
		c0.2-0.2,0.3-0.4,0.4-0.6c0-0.2,0-0.3-0.2-0.5c-0.1-0.1-0.1-0.3,0-0.4c0.1-0.1,0.3-0.1,0.4,0c0.3,0.3,0.4,0.7,0.3,1
		c-0.1,0.3-0.3,0.7-0.5,0.9l-0.4,0.4C7.7,956.6,7.5,956.6,7.4,956.5L7.4,956.5z"/>
</g>
</svg>
