<?xml version="1.0" encoding="utf-8"?>
<!-- Generator: Adobe Illustrator 22.0.1, SVG Export Plug-In . SVG Version: 6.00 Build 0)  -->
<svg version="1.1" id="Layer_1" xmlns="http://www.w3.org/2000/svg" xmlns:xlink="http://www.w3.org/1999/xlink" x="0px" y="0px"
	 viewBox="0 0 10 10" style="enable-background:new 0 0 10 10;" xml:space="preserve">
<g>
	<path d="M8.9,0H1.1C0.5,0,0,0.5,0,1.1v7.8C0,9.5,0.5,10,1.1,10h7.8C9.5,10,10,9.5,10,8.9V1.1C10,0.5,9.5,0,8.9,0z M9.5,8.9
		c0,0.3-0.3,0.6-0.6,0.6H1.1c-0.3,0-0.6-0.3-0.6-0.6V1.1c0-0.3,0.3-0.5,0.6-0.6h7.8c0.3,0,0.6,0.2,0.6,0.6V8.9z"/>
	<path d="M7.8,1.4H2.2c-0.5,0-0.8,0.4-0.8,0.8v0.7c0,1.4,1.1,2.6,2.5,2.6h2.1c1.4-0.1,2.5-1.2,2.5-2.6V2.2C8.6,1.8,8.2,1.4,7.8,1.4z
		 M4.9,5H4.5v0c0.1-0.1,0.2-0.2,0.3-0.2c0,0,0.1,0,0.1,0h0c0.1,0,0.2,0,0.3,0.1c0.1,0,0.1,0.1,0.2,0.2L4.9,5z M8.1,2.9
		c0,1.1-0.9,2-2,2.1c0-0.2-0.1-0.3-0.3-0.5l0.6-0.9c0.1-0.1,0-0.3-0.2-0.4c-0.1,0-0.2,0-0.3,0.1L5.3,4.2c-0.5-0.2-1,0-1.3,0.5
		C4,4.8,4,4.9,3.9,5c-1.1-0.1-2-1-2-2.1V2.2c0-0.2,0.1-0.3,0.3-0.3h0.3v0.6c0,0.2,0.1,0.3,0.2,0.3c0.2,0,0.3-0.1,0.3-0.2
		c0,0,0-0.1,0-0.1V1.9h0.6v0.6c0,0.2,0.2,0.3,0.3,0.2c0.1,0,0.2-0.1,0.2-0.2V1.9h0.5v0.6c0,0.2,0.2,0.3,0.3,0.2
		c0.1,0,0.2-0.1,0.2-0.2V1.9h0.6v0.6c0,0.2,0.2,0.3,0.3,0.2c0.1,0,0.2-0.1,0.2-0.2V1.9h0.6v0.6c0,0.2,0.1,0.3,0.3,0.3
		s0.3-0.1,0.3-0.3V1.9h0.3c0.2,0,0.3,0.1,0.3,0.3L8.1,2.9z"/>
</g>
</svg>
